<svg width="27" height="21" viewBox="0 0 27 21" fill="none" xmlns="http://www.w3.org/2000/svg">
<path fill-rule="evenodd" clip-rule="evenodd" d="M11.361 1.5999C10.8951 1.5999 10.4475 1.78605 10.117 2.11854C9.7863 2.45115 9.5999 2.90301 9.5999 3.3749V5.7499C9.5999 6.08127 9.33127 6.3499 8.9999 6.3499C8.66853 6.3499 8.3999 6.08127 8.3999 5.7499V3.3749C8.3999 2.58702 8.71103 1.83069 9.26595 1.27251C9.82099 0.714199 10.5745 0.399902 11.361 0.399902H23.6388C24.4253 0.399902 25.1788 0.714199 25.7339 1.27251C26.2888 1.83069 26.5999 2.58702 26.5999 3.3749V17.6249C26.5999 18.4128 26.2888 19.1691 25.7339 19.7273C25.1788 20.2856 24.4253 20.5999 23.6388 20.5999H11.361C10.5745 20.5999 9.82099 20.2856 9.26595 19.7273C8.71103 19.1691 8.3999 18.4128 8.3999 17.6249V15.2499C8.3999 14.9185 8.66853 14.6499 8.9999 14.6499C9.33127 14.6499 9.5999 14.9185 9.5999 15.2499V17.6249C9.5999 18.0968 9.7863 18.5487 10.117 18.8813C10.4475 19.2138 10.8951 19.3999 11.361 19.3999H23.6388C24.1047 19.3999 24.5523 19.2138 24.8828 18.8813C25.2135 18.5487 25.3999 18.0968 25.3999 17.6249V3.3749C25.3999 2.90301 25.2135 2.45115 24.8828 2.11854C24.5523 1.78605 24.1047 1.5999 23.6388 1.5999H11.361Z" fill="#2F8FD4"/>
<path d="M15.4242 4.57564C15.1899 4.34132 14.81 4.34132 14.5756 4.57564C14.3413 4.80995 14.3413 5.18985 14.5756 5.42417L18.5514 9.3999H0.999902C0.668532 9.3999 0.399902 9.66853 0.399902 9.9999C0.399902 10.3313 0.668532 10.5999 0.999902 10.5999H18.5514L14.5756 14.5756C14.3413 14.81 14.3413 15.1899 14.5756 15.4242C14.81 15.6585 15.1899 15.6585 15.4242 15.4242L20.4242 10.4242C20.6585 10.1899 20.6585 9.80995 20.4242 9.57564L15.4242 4.57564Z" fill="#2F8FD4"/>
</svg>
