<svg width="150" height="35" viewBox="0 0 150 35" fill="none" xmlns="http://www.w3.org/2000/svg">
<path d="M10.1912 12.7789H7.53111V20.7066H1.70839V0H7.53111V8.04598H10.339L15.275 0H21.4229L14.9499 9.99831L21.482 20.7066H14.8908L10.1912 12.7789Z" fill="white"/>
<path d="M23.3806 4.67377H28.9668V13.0747L35.6763 4.67377H40.8487V20.7066H35.2329V12.276L28.5826 20.7066H23.3806V4.67377Z" fill="white"/>
<path d="M44.6246 4.67377H50.2109V10.6195H55.9745V4.67377H61.5903V20.7066H55.9745V15.0862H50.2109V20.7066H44.6246V4.67377Z" fill="white"/>
<path d="M73.2697 20.9728C71.5554 20.9728 70.0086 20.6178 68.6292 19.9079C67.2499 19.1979 66.1662 18.2119 65.378 16.9498C64.6095 15.6877 64.2253 14.2579 64.2253 12.6606C64.2253 11.0829 64.6095 9.66306 65.378 8.40095C66.1662 7.13883 67.2401 6.16267 68.5997 5.47245C69.979 4.76251 71.5357 4.40754 73.2697 4.40754C75.0037 4.40754 76.5604 4.76251 77.9397 5.47245C79.319 6.16267 80.3929 7.13883 81.1614 8.40095C81.9299 9.64334 82.3141 11.0632 82.3141 12.6606C82.3141 14.2579 81.9299 15.6877 81.1614 16.9498C80.3929 18.2119 79.319 19.1979 77.9397 19.9079C76.5604 20.6178 75.0037 20.9728 73.2697 20.9728ZM73.2697 16.5061C74.2549 16.5061 75.0628 16.1708 75.6934 15.5003C76.3239 14.8101 76.6392 13.8635 76.6392 12.6606C76.6392 11.4774 76.3239 10.5505 75.6934 9.87999C75.0628 9.20949 74.2549 8.87424 73.2697 8.87424C72.2845 8.87424 71.4766 9.20949 70.846 9.87999C70.2155 10.5505 69.9002 11.4774 69.9002 12.6606C69.9002 13.8635 70.2155 14.8101 70.846 15.5003C71.4766 16.1708 72.2845 16.5061 73.2697 16.5061Z" fill="white"/>
<path d="M107.442 16.0624V24.8775H102.092V20.7066H88.8508V24.8775H83.4715V16.0624H84.2104C85.4321 16.0427 86.2892 15.2045 86.7818 13.548C87.2942 11.8915 87.6094 9.5053 87.7277 6.38945L87.9641 0H104.634V16.0624H107.442ZM92.841 6.89233C92.7622 9.10103 92.5848 10.9745 92.309 12.5127C92.0331 14.0509 91.6095 15.2341 91.038 16.0624H98.8706V4.64419H92.9297L92.841 6.89233Z" fill="white"/>
<path d="M117.721 20.9728C116.006 20.9728 114.459 20.6178 113.08 19.9079C111.701 19.1979 110.617 18.2119 109.829 16.9498C109.06 15.6877 108.676 14.2579 108.676 12.6606C108.676 11.0829 109.06 9.66306 109.829 8.40095C110.617 7.13883 111.691 6.16267 113.051 5.47245C114.43 4.76251 115.987 4.40754 117.721 4.40754C119.455 4.40754 121.011 4.76251 122.391 5.47245C123.77 6.16267 124.844 7.13883 125.612 8.40095C126.381 9.64334 126.765 11.0632 126.765 12.6606C126.765 14.2579 126.381 15.6877 125.612 16.9498C124.844 18.2119 123.77 19.1979 122.391 19.9079C121.011 20.6178 119.455 20.9728 117.721 20.9728ZM117.721 16.5061C118.706 16.5061 119.514 16.1708 120.144 15.5003C120.775 14.8101 121.09 13.8635 121.09 12.6606C121.09 11.4774 120.775 10.5505 120.144 9.87999C119.514 9.20949 118.706 8.87424 117.721 8.87424C116.735 8.87424 115.927 9.20949 115.297 9.87999C114.666 10.5505 114.351 11.4774 114.351 12.6606C114.351 13.8635 114.666 14.8101 115.297 15.5003C115.927 16.1708 116.735 16.5061 117.721 16.5061Z" fill="white"/>
<path d="M144.946 20.7066V12.276L140.837 19.2867H138.443L134.453 12.1577V20.7066H129.399V4.67377H135.31L139.773 13.0451L144.68 4.67377H149.97L150 20.7066H144.946Z" fill="white"/>
<path d="M2.44732 33.3316C1.98032 33.3316 1.56061 33.2281 1.18819 33.021C0.815772 32.814 0.523158 32.53 0.310348 32.1691C0.103449 31.8023 0 31.3882 0 30.9267C0 30.4653 0.103449 30.0541 0.310348 29.6932C0.523158 29.3264 0.815772 29.0424 1.18819 28.8413C1.56061 28.6342 1.98032 28.5307 2.44732 28.5307C2.91432 28.5307 3.33107 28.6342 3.69757 28.8413C4.06999 29.0424 4.35965 29.3264 4.56655 29.6932C4.77936 30.0541 4.88576 30.4653 4.88576 30.9267C4.88576 31.3882 4.77936 31.8023 4.56655 32.1691C4.35965 32.53 4.06999 32.814 3.69757 33.021C3.33107 33.2281 2.91432 33.3316 2.44732 33.3316ZM2.44732 32.5862C2.7488 32.5862 3.01776 32.5182 3.25422 32.3821C3.49659 32.2401 3.68575 32.0449 3.82171 31.7964C3.95768 31.542 4.02566 31.2521 4.02566 30.9267C4.02566 30.6013 3.95768 30.3144 3.82171 30.0659C3.68575 29.8115 3.49659 29.6163 3.25422 29.4802C3.01776 29.3442 2.7488 29.2761 2.44732 29.2761C2.14583 29.2761 1.87391 29.3442 1.63154 29.4802C1.39509 29.6163 1.20592 29.8115 1.06405 30.0659C0.928088 30.3144 0.860107 30.6013 0.860107 30.9267C0.860107 31.2521 0.928088 31.542 1.06405 31.7964C1.20592 32.0449 1.39509 32.2401 1.63154 32.3821C1.87391 32.5182 2.14583 32.5862 2.44732 32.5862Z" fill="white"/>
<path d="M6.11496 28.5751H6.9662V30.5718H9.64406V28.5751H10.4953V33.2784H9.64406V31.3083H6.9662V33.2784H6.11496V28.5751Z" fill="white"/>
<path d="M16.185 28.5751V33.2784H15.3338V29.3205H13.3121L13.2589 30.3676C13.2293 31.0007 13.1731 31.5302 13.0904 31.9561C13.0076 32.3762 12.8717 32.7134 12.6825 32.9678C12.4933 33.2222 12.2303 33.3494 11.8933 33.3494C11.7396 33.3494 11.5652 33.3228 11.3702 33.2695L11.4234 32.5507C11.5002 32.5685 11.5712 32.5773 11.6362 32.5773C11.8726 32.5773 12.05 32.4738 12.1682 32.2667C12.2864 32.0597 12.3633 31.8141 12.3987 31.5302C12.4342 31.2462 12.4667 30.8409 12.4963 30.3144L12.5761 28.5751H16.185Z" fill="white"/>
<path d="M19.5068 28.5307C20.1571 28.5307 20.6536 28.6904 20.9965 29.0099C21.3453 29.3294 21.5197 29.8056 21.5197 30.4386V33.2784H20.7127V32.6572C20.5709 32.8761 20.3669 33.0447 20.1009 33.163C19.8408 33.2754 19.5305 33.3316 19.1699 33.3316C18.6438 33.3316 18.2211 33.2044 17.9019 32.9501C17.5886 32.6957 17.4319 32.3614 17.4319 31.9473C17.4319 31.5331 17.5827 31.2018 17.8841 30.9533C18.1856 30.699 18.6645 30.5718 19.3206 30.5718H20.6684V30.4031C20.6684 30.0363 20.562 29.7553 20.3492 29.5601C20.1364 29.3649 19.8231 29.2672 19.4093 29.2672C19.1315 29.2672 18.8595 29.3146 18.5935 29.4092C18.3275 29.498 18.1029 29.6193 17.9196 29.7731L17.5649 29.1341C17.8073 28.9389 18.097 28.791 18.4339 28.6904C18.7709 28.5839 19.1285 28.5307 19.5068 28.5307ZM19.3117 32.6749C19.6369 32.6749 19.9177 32.604 20.1541 32.462C20.3906 32.3141 20.562 32.107 20.6684 31.8408V31.1841H19.3561C18.6349 31.1841 18.2743 31.4266 18.2743 31.9118C18.2743 32.1484 18.3659 32.3348 18.5492 32.4708C18.7324 32.6069 18.9866 32.6749 19.3117 32.6749Z" fill="white"/>
<path d="M23.0525 28.5751H23.9037V32.0005L26.7855 28.5751H27.557V33.2784H26.7057V29.8529L23.8328 33.2784H23.0525V28.5751ZM25.2515 27.9627C24.8141 27.9627 24.4742 27.8592 24.2318 27.6521C23.9894 27.4391 23.8653 27.1345 23.8594 26.7381H24.4357C24.4417 26.957 24.5155 27.1345 24.6574 27.2705C24.8052 27.4007 25.0003 27.4658 25.2426 27.4658C25.485 27.4658 25.6801 27.4007 25.8279 27.2705C25.9757 27.1345 26.0525 26.957 26.0584 26.7381H26.6525C26.6466 27.1345 26.5195 27.4391 26.2712 27.6521C26.023 27.8592 25.683 27.9627 25.2515 27.9627Z" fill="white"/>
<path d="M29.2092 28.5751H30.0605V30.5718H32.7383V28.5751H33.5896V33.2784H32.7383V31.3083H30.0605V33.2784H29.2092V28.5751Z" fill="white"/>
<path d="M34.9255 30.4741H37.3108V31.2107H34.9255V30.4741Z" fill="white"/>
<path d="M40.4658 31.2906H39.4904V33.2784H38.6392V28.5751H39.4904V30.5629H40.4835L42.0086 28.5751H42.922L41.1397 30.838L43.0461 33.2784H42.0441L40.4658 31.2906Z" fill="white"/>
<path d="M43.9386 28.5751H44.7899V32.0005L47.6717 28.5751H48.4431V33.2784H47.5919V29.8529L44.7189 33.2784H43.9386V28.5751Z" fill="white"/>
<path d="M50.0954 28.5751H50.9466V30.5718H53.6245V28.5751H54.4757V33.2784H53.6245V31.3083H50.9466V33.2784H50.0954V28.5751Z" fill="white"/>
<path d="M58.1437 33.3316C57.6767 33.3316 57.257 33.2281 56.8846 33.021C56.5121 32.814 56.2195 32.53 56.0067 32.1691C55.7998 31.8023 55.6964 31.3882 55.6964 30.9267C55.6964 30.4653 55.7998 30.0541 56.0067 29.6932C56.2195 29.3264 56.5121 29.0424 56.8846 28.8413C57.257 28.6342 57.6767 28.5307 58.1437 28.5307C58.6107 28.5307 59.0274 28.6342 59.3939 28.8413C59.7664 29.0424 60.056 29.3264 60.2629 29.6932C60.4757 30.0541 60.5821 30.4653 60.5821 30.9267C60.5821 31.3882 60.4757 31.8023 60.2629 32.1691C60.056 32.53 59.7664 32.814 59.3939 33.021C59.0274 33.2281 58.6107 33.3316 58.1437 33.3316ZM58.1437 32.5862C58.4452 32.5862 58.7141 32.5182 58.9506 32.3821C59.193 32.2401 59.3821 32.0449 59.5181 31.7964C59.6541 31.542 59.722 31.2521 59.722 30.9267C59.722 30.6013 59.6541 30.3144 59.5181 30.0659C59.3821 29.8115 59.193 29.6163 58.9506 29.4802C58.7141 29.3442 58.4452 29.2761 58.1437 29.2761C57.8422 29.2761 57.5703 29.3442 57.3279 29.4802C57.0915 29.6163 56.9023 29.8115 56.7604 30.0659C56.6245 30.3144 56.5565 30.6013 56.5565 30.9267C56.5565 31.2521 56.6245 31.542 56.7604 31.7964C56.9023 32.0449 57.0915 32.2401 57.3279 32.3821C57.5703 32.5182 57.8422 32.5862 58.1437 32.5862Z" fill="white"/>
<path d="M65.1407 29.3205H63.4204V33.2784H62.5692V29.3205H60.849V28.5751H65.1407V29.3205Z" fill="white"/>
<path d="M70.0506 30.9533C70.0506 31.0184 70.0447 31.1042 70.0329 31.2107H66.22C66.2732 31.6248 66.4535 31.9591 66.7609 32.2135C67.0742 32.462 67.4614 32.5862 67.9225 32.5862C68.4841 32.5862 68.9363 32.3969 69.2792 32.0183L69.7491 32.5685C69.5363 32.8169 69.2703 33.0063 68.9511 33.1364C68.6378 33.2666 68.286 33.3316 67.8959 33.3316C67.3993 33.3316 66.9589 33.2311 66.5747 33.0299C66.1905 32.8229 65.8919 32.5359 65.6791 32.1691C65.4722 31.8023 65.3688 31.3882 65.3688 30.9267C65.3688 30.4712 65.4693 30.06 65.6702 29.6932C65.8772 29.3264 66.1579 29.0424 66.5126 28.8413C66.8732 28.6342 67.2782 28.5307 67.7274 28.5307C68.1767 28.5307 68.5757 28.6342 68.9245 28.8413C69.2792 29.0424 69.554 29.3264 69.7491 29.6932C69.9501 30.06 70.0506 30.4801 70.0506 30.9533ZM67.7274 29.2495C67.3195 29.2495 66.9767 29.3737 66.6988 29.6222C66.4269 29.8707 66.2673 30.1961 66.22 30.5984H69.2348C69.1875 30.202 69.025 29.8796 68.7471 29.6311C68.4752 29.3767 68.1353 29.2495 67.7274 29.2495Z" fill="white"/>
<path d="M72.9172 28.5307C73.5674 28.5307 74.064 28.6904 74.4068 29.0099C74.7556 29.3294 74.93 29.8056 74.93 30.4386V33.2784H74.1231V32.6572C73.9812 32.8761 73.7773 33.0447 73.5113 33.163C73.2512 33.2754 72.9408 33.3316 72.5802 33.3316C72.0541 33.3316 71.6314 33.2044 71.3122 32.9501C70.9989 32.6957 70.8423 32.3614 70.8423 31.9473C70.8423 31.5331 70.993 31.2018 71.2945 30.9533C71.596 30.699 72.0748 30.5718 72.7309 30.5718H74.0787V30.4031C74.0787 30.0363 73.9723 29.7553 73.7595 29.5601C73.5467 29.3649 73.2334 29.2672 72.8196 29.2672C72.5418 29.2672 72.2699 29.3146 72.0038 29.4092C71.7378 29.498 71.5132 29.6193 71.3299 29.7731L70.9753 29.1341C71.2176 28.9389 71.5073 28.791 71.8442 28.6904C72.1812 28.5839 72.5388 28.5307 72.9172 28.5307ZM72.7221 32.6749C73.0472 32.6749 73.328 32.604 73.5645 32.462C73.8009 32.3141 73.9723 32.107 74.0787 31.8408V31.1841H72.7664C72.0452 31.1841 71.6846 31.4266 71.6846 31.9118C71.6846 32.1484 71.7763 32.3348 71.9595 32.4708C72.1428 32.6069 72.397 32.6749 72.7221 32.6749Z" fill="white"/>
<path d="M79.9653 29.3205H78.2451V33.2784H77.3939V29.3205H75.6736V28.5751H79.9653V29.3205Z" fill="white"/>
<path d="M83.3274 28.5307C83.7826 28.5307 84.1905 28.6313 84.551 28.8324C84.9116 29.0336 85.1924 29.3146 85.3934 29.6755C85.6003 30.0363 85.7038 30.4534 85.7038 30.9267C85.7038 31.4 85.6003 31.8201 85.3934 32.1869C85.1924 32.5478 84.9116 32.8288 84.551 33.0299C84.1905 33.2311 83.7826 33.3316 83.3274 33.3316C82.9904 33.3316 82.6801 33.2666 82.3963 33.1364C82.1185 33.0063 81.8821 32.8169 81.687 32.5685V35H80.8357V28.5751H81.6515V29.3205C81.8407 29.0602 82.0801 28.8649 82.3697 28.7348C82.6594 28.5987 82.9786 28.5307 83.3274 28.5307ZM83.2565 32.5862C83.5579 32.5862 83.8269 32.5182 84.0634 32.3821C84.3057 32.2401 84.4949 32.0449 84.6309 31.7964C84.7727 31.542 84.8437 31.2521 84.8437 30.9267C84.8437 30.6013 84.7727 30.3144 84.6309 30.0659C84.4949 29.8115 84.3057 29.6163 84.0634 29.4802C83.8269 29.3442 83.5579 29.2761 83.2565 29.2761C82.9609 29.2761 82.6919 29.3471 82.4496 29.4891C82.2131 29.6252 82.0239 29.8174 81.882 30.0659C81.7461 30.3144 81.6781 30.6013 81.6781 30.9267C81.6781 31.2521 81.7461 31.542 81.882 31.7964C82.018 32.0449 82.2072 32.2401 82.4496 32.3821C82.6919 32.5182 82.9609 32.5862 83.2565 32.5862Z" fill="white"/>
</svg>
