<svg width="42" height="32" viewBox="0 0 42 32" fill="none" xmlns="http://www.w3.org/2000/svg">
<path fill-rule="evenodd" clip-rule="evenodd" d="M2.6203 31.4436C2.6203 31.4436 0 31.4436 0 28.8233C0 26.203 2.6203 18.3421 15.7218 18.3421C28.8233 18.3421 31.4436 26.203 31.4436 28.8233C31.4436 31.4436 28.8233 31.4436 28.8233 31.4436H2.6203ZM15.7218 15.7218C17.8066 15.7218 19.8061 14.8936 21.2803 13.4194C22.7545 11.9452 23.5827 9.94573 23.5827 7.86089C23.5827 5.77605 22.7545 3.7766 21.2803 2.3024C19.8061 0.828199 17.8066 0 15.7218 0C13.6369 0 11.6375 0.828199 10.1633 2.3024C8.68909 3.7766 7.86089 5.77605 7.86089 7.86089C7.86089 9.94573 8.68909 11.9452 10.1633 13.4194C11.6375 14.8936 13.6369 15.7218 15.7218 15.7218ZM41.5422 8.24345C41.6642 8.36515 41.761 8.50973 41.827 8.6689C41.8931 8.82807 41.9271 8.99871 41.9271 9.17104C41.9271 9.34337 41.8931 9.514 41.827 9.67317C41.761 9.83234 41.6642 9.97692 41.5422 10.0986L33.6813 17.9595C33.5596 18.0815 33.415 18.1783 33.2558 18.2444C33.0967 18.3104 32.926 18.3444 32.7537 18.3444C32.5814 18.3444 32.4107 18.3104 32.2516 18.2444C32.0924 18.1783 31.9478 18.0815 31.8261 17.9595L27.8957 14.0291C27.6497 13.7831 27.5115 13.4494 27.5115 13.1015C27.5115 12.7536 27.6497 12.4199 27.8957 12.1739C28.1417 11.9279 28.4753 11.7897 28.8233 11.7897C29.1712 11.7897 29.5048 11.9279 29.7508 12.1739L32.7537 15.1794L39.687 8.24345C39.8087 8.12144 39.9533 8.02464 40.1125 7.95859C40.2716 7.89254 40.4423 7.85855 40.6146 7.85855C40.7869 7.85855 40.9576 7.89254 41.1167 7.95859C41.2759 8.02464 41.4205 8.12144 41.5422 8.24345Z" fill="#2F8FD4"/>
</svg>
