<svg width="33" height="33" viewBox="0 0 33 33" fill="none" xmlns="http://www.w3.org/2000/svg">
<path d="M16.4062 0C11.8774 0 8.01086 1.60217 4.80652 4.80652C1.60217 8.01086 0 11.8774 0 16.4062C0 20.9351 1.60217 24.8016 4.80652 28.006C8.01086 31.2103 11.8774 32.8125 16.4062 32.8125C20.9351 32.8125 24.8016 31.2103 28.006 28.006C31.2103 24.8016 32.8125 20.9351 32.8125 16.4062C32.8125 11.8774 31.2103 8.01086 28.006 4.80652C24.8016 1.60217 20.9351 0 16.4062 0ZM6.98547 21.2128C7.88269 23.4772 8.3313 25.528 8.3313 27.3651C6.62231 26.1688 5.26581 24.5987 4.26178 22.6547C3.25775 20.7108 2.75574 18.6279 2.75574 16.4062C2.75574 12.0056 4.48608 8.45947 7.94678 5.76782C8.71582 6.36597 9.42078 7.14569 10.0616 8.10699C10.7025 9.0683 11.0016 9.9762 10.9589 10.8307C10.788 12.1552 9.91211 13.4583 8.3313 14.74C7.51953 15.5945 6.97479 16.6092 6.69708 17.7841C6.41937 18.959 6.5155 20.1019 6.98547 21.2128ZM30.0568 16.4062C30.0568 20.166 28.7216 23.381 26.0513 26.0513C23.381 28.7216 20.166 30.0568 16.4062 30.0568C14.5264 30.0568 12.7533 29.6936 11.087 28.9673C11.3007 26.1902 10.7452 23.2849 9.42078 20.2515C8.95081 18.7988 9.22852 17.6453 10.2539 16.7908C12.3901 14.6545 13.5223 12.7533 13.6505 11.087C13.9069 8.77991 12.8174 6.45142 10.3821 4.10156C12.0483 3.20435 14.0564 2.75574 16.4062 2.75574C17.5171 2.75574 18.5638 2.88391 19.5465 3.14026L16.7908 5.896L15.8295 6.8573L19.8029 10.8307L29.4159 12.1765C29.8431 13.6719 30.0568 15.0818 30.0568 16.4062ZM21.2128 8.3313L19.6747 6.8573L22.4304 4.10156C24.7803 5.2124 26.6388 6.94275 28.006 9.2926L21.2128 8.3313ZM17.2394 14.0991L16.1499 15.7013C15.2954 17.0685 15.1886 18.4357 15.8295 19.8029L16.4062 21.0846L17.3676 25.6989C17.4957 26.6815 18.0939 27.3224 19.162 27.6215C19.3329 27.7069 19.5465 27.7496 19.8029 27.7496C20.4437 27.7496 21.0419 27.5146 21.5973 27.0447L23.1354 25.5707L23.2635 25.3143C23.9044 22.9218 24.6307 21.3196 25.4425 20.5078C26.5961 19.696 26.9165 18.2434 26.4038 16.1499C26.1047 14.9963 25.3143 14.1632 24.0326 13.6505L20.7642 12.3047H20.5078C19.0125 12.3047 17.923 12.9028 17.2394 14.0991ZM18.457 17.2394L19.5465 15.5731C19.7174 15.2313 19.9951 15.0604 20.3796 15.0604L23.1354 16.0217C23.4772 16.1926 23.6481 16.3635 23.6481 16.5344C23.7335 16.8335 23.7762 17.3462 23.7762 18.0725C22.6227 18.927 21.5759 20.871 20.636 23.9044L19.931 24.6094L19.162 20.2515L18.3289 18.5852C18.0725 18.2007 18.1152 17.7521 18.457 17.2394Z" fill="#2F8FD4"/>
</svg>
